<svg width="24" height="24" viewBox="0 0 24 24" fill="none" xmlns="http://www.w3.org/2000/svg">
<g id="atk 2" clip-path="url(#clip0_40_3780)">
<path id="Vector" d="M2.15414 0.68222C1.2457 0.720189 0.720047 1.21458 0.734672 2.10174L1.6613 3.54455C1.86895 3.48769 2.10005 3.36464 2.32917 3.20072L4.32014 6.01017C3.52242 6.98658 2.85492 8.0933 2.31811 9.33061L3.56264 10.5752C4.09116 9.46899 4.71736 8.47402 5.4338 7.58161L15.316 21.5258L23.1351 23.0826L21.5782 15.2635L7.63055 5.37872C8.56369 4.62366 9.59189 3.97669 10.708 3.42975L9.46331 2.18522C8.18803 2.73849 7.05197 3.43097 6.05386 4.26141L3.25289 2.2763C3.41428 2.05022 3.53705 1.81997 3.59705 1.6087L2.15423 0.68222H2.15414ZM20.9435 4.75721V4.75758L20.9437 4.75721H20.9435ZM20.9435 4.75758L19.6297 10.6156L18.4524 6.83775L17.6037 10.1503L16.3446 7.82339L16.3172 10.5336L22.3399 14.8316L23.0516 18.9105L22.9969 10.1503L21.3817 12.0118L20.9436 4.75763L20.9435 4.75758ZM6.83648 6.06914L17.2532 15.2739L18.4553 18.4028L15.3264 17.2007L6.12211 6.78446C6.35227 6.53705 6.59062 6.29883 6.83639 6.06914H6.83648ZM8.35078 15.2695V15.2697H8.35101L8.35078 15.2695ZM8.35101 15.2697L9.66483 16.3373L7.96748 16.5289L10.6778 17.4323L5.72283 17.624L11.1158 18.9107L6.37992 19.7866L12.3479 20.9911L9.19955 23.0444L18.9727 23.1265L14.8938 22.4147L9.99347 15.3518L8.35111 15.2697H8.35101Z" fill="url(#paint0_linear_40_3780)"/>
</g>
<defs>
<linearGradient id="paint0_linear_40_3780" x1="11.9347" y1="0.68222" x2="11.9347" y2="23.1265" gradientUnits="userSpaceOnUse">
<stop stop-color="#F9B208"/>
<stop offset="1" stop-color="#C14003"/>
</linearGradient>
<clipPath id="clip0_40_3780">
<rect width="24" height="24" fill="white"/>
</clipPath>
</defs>
</svg>
