<svg width="21" height="25" viewBox="0 0 21 25" fill="none" xmlns="http://www.w3.org/2000/svg">
<g clip-path="url(#clip0_27_1157)">
<path fill-rule="evenodd" clip-rule="evenodd" d="M10.0978 0.5C1.32577 0.785554 -1.36142 5.5652 0.81494 12.1309C1.28743 13.3385 0.977322 13.2596 0.759685 13.8234C0.548815 14.3706 0.116925 15.8472 1.02356 18.6872C1.24683 19.387 1.98995 19.7681 3.11196 19.4763C6.15887 18.6841 5.41462 20.5978 4.84967 21.9705C4.61512 22.5406 5.33343 22.795 5.79464 22.9445C5.95026 22.9944 5.96492 23.1127 6.03032 23.4128C6.08783 23.6797 6.32915 23.8043 6.61895 23.8915C6.93582 23.987 7.30795 24.0203 7.46244 23.7056C7.59888 23.4274 7.67105 23.3142 7.82892 23.3557C8.01611 23.4045 7.99356 23.6859 8.0973 24.066C8.1582 24.2882 8.54273 24.4232 8.91598 24.4792C9.29712 24.5353 9.66812 24.5062 9.78201 24.1013C9.88801 23.7285 9.90831 23.4949 10.0978 23.4949C10.2872 23.4949 10.3075 23.7295 10.4135 24.1013C10.5285 24.5062 10.8995 24.5353 11.2807 24.4792C11.6539 24.4242 12.0373 24.2892 12.0982 24.066C12.202 23.6859 12.1794 23.4045 12.3666 23.3557C12.5245 23.3152 12.5955 23.4284 12.7331 23.7056C12.8876 24.0203 13.2597 23.987 13.5766 23.8915C13.8664 23.8043 14.1077 23.6797 14.1652 23.4128C14.2306 23.1127 14.2441 22.9944 14.4009 22.9445C14.8632 22.795 15.5804 22.5406 15.3458 21.9705C14.782 20.5978 14.0378 18.6841 17.0835 19.4763C18.2056 19.7681 18.9487 19.387 19.172 18.6872C20.0786 15.8462 19.6478 14.3696 19.4358 13.8234C19.2182 13.2585 18.9081 13.3385 19.3806 12.1309C21.5569 5.5652 18.8686 0.785554 10.0978 0.5ZM10.0978 19.5314C9.86771 19.5314 9.63091 19.9727 9.43131 20.0443C9.16293 20.1419 8.71075 19.9041 8.56866 19.7069C8.29126 19.3185 9.66925 16.2241 10.0966 16.2241C10.524 16.2241 11.902 19.3185 11.6246 19.7069C11.4825 19.9041 11.0314 20.1419 10.7619 20.0443C10.5635 19.9727 10.3267 19.5314 10.0955 19.5314H10.0978ZM11.8851 13.7995C12.5481 13.164 15.2816 13.1319 16.1611 13.3603C17.3271 13.6625 17.98 14.0165 17.9845 14.9044C17.9924 16.3695 17.4794 17.7017 15.4361 17.6343C14.2306 17.5938 12.7004 16.7194 11.8456 15.978C11.2288 15.4433 11.2536 14.4049 11.8851 13.7995ZM8.3093 13.7995C7.64624 13.164 4.91282 13.1319 4.03325 13.3603C2.86726 13.6625 2.21435 14.0165 2.20984 14.9044C2.20195 16.3695 2.71503 17.7017 4.75833 17.6343C5.96379 17.5938 7.49401 16.7194 8.34877 15.978C8.96559 15.4433 8.94079 14.4049 8.3093 13.7995Z" fill="#646464"/>
</g>
<defs>
<clipPath id="clip0_27_1157">
<rect width="20" height="24" fill="white" transform="translate(0.0976562 0.5)"/>
</clipPath>
</defs>
</svg>
