<svg width="24" height="24" viewBox="0 0 24 24" fill="none" xmlns="http://www.w3.org/2000/svg">
<path d="M9.75 2.6553L9 5.6553L4.37962 6.3154L12 8.2204L19.6204 6.3154L15 5.6553L14.25 2.6553L12.9718 3.50749L12.4092 5.75763H11.5908L11.0282 3.50744L9.75 2.6553ZM3.25214 6.90312L0.75 9.40535L3 12.4054L4.20797 11.1974L5.45573 7.45408L3.25214 6.90312ZM20.7479 6.90312L18.5443 7.45404L19.7921 11.1973L21 12.4053L23.25 9.4053L20.7479 6.90312ZM6.27675 7.6593L5.33348 10.4891L5.98083 13.0788L11.5781 16.1884V8.98469L6.27675 7.6593ZM17.7233 7.6593L12.4219 8.98469V16.1884L18.0191 13.0788L18.6665 10.4891L17.7233 7.6593ZM6.75 14.4712V17.1109L11.5781 18.5465V17.1535L6.75 14.4712ZM17.25 14.4712L12.4219 17.1535V18.5465L17.25 17.1109V14.4712ZM6.75 18.0121V20.6553L11.5781 21.345V19.4477L6.75 18.0121ZM17.25 18.0121L12.4219 19.4477V21.3451L17.25 20.6554V18.0121Z" fill="url(#paint0_linear_40_3784)"/>
<defs>
<linearGradient id="paint0_linear_40_3784" x1="12" y1="2.6553" x2="12" y2="21.3451" gradientUnits="userSpaceOnUse">
<stop stop-color="#F9B208"/>
<stop offset="1" stop-color="#C14003"/>
</linearGradient>
</defs>
</svg>
