<svg width="24" height="24" viewBox="0 0 24 24" fill="none" xmlns="http://www.w3.org/2000/svg">
<g clip-path="url(#clip0_40_3771)">
<path d="M2.21094 13.5C4.05144 16.26 7.16694 19.3065 11.9984 22.5C16.8299 19.3065 19.9454 16.26 21.7859 13.5H17.9984C17.8487 13.5 17.7023 13.4551 17.5783 13.3712C17.4542 13.2872 17.3582 13.1681 17.3024 13.029L15.1169 7.56604L12.7199 15.9555C12.6771 16.106 12.5882 16.2393 12.4659 16.3368C12.3435 16.4342 12.1937 16.491 12.0375 16.4991C11.8812 16.5072 11.7264 16.4662 11.5946 16.3819C11.4628 16.2976 11.3606 16.1743 11.3024 16.029L8.83194 9.85204L6.62244 13.167C6.55384 13.2696 6.461 13.3536 6.35216 13.4117C6.24331 13.4698 6.12181 13.5001 5.99844 13.5H2.21094Z" fill="url(#paint0_linear_40_3771)"/>
<path d="M1.31968 12.0002C-3.64082 2.52021 6.61468 -2.99979 11.7342 1.71471C11.8242 1.79771 11.9122 1.88321 11.9982 1.97121C12.0827 1.88266 12.1708 1.79759 12.2622 1.71621C17.3847 -2.99979 27.6387 2.52021 22.6797 12.0002H18.5052L15.6942 4.97121C15.636 4.82599 15.5338 4.7026 15.402 4.61832C15.2702 4.53403 15.1154 4.49307 14.9592 4.50118C14.8029 4.50928 14.6531 4.56603 14.5308 4.6635C14.4084 4.76096 14.3195 4.89425 14.2767 5.04471L11.8812 13.4342L9.69568 7.97121C9.64478 7.84448 9.56025 7.73406 9.45119 7.65185C9.34214 7.56964 9.21271 7.51876 9.07687 7.50472C8.94102 7.49067 8.80392 7.51398 8.68035 7.57213C8.55678 7.63029 8.45144 7.72108 8.37568 7.83471L5.59768 12.0002H1.31968Z" fill="url(#paint1_linear_40_3771)"/>
</g>
<defs>
<linearGradient id="paint0_linear_40_3771" x1="11.9984" y1="7.56604" x2="11.9984" y2="22.5" gradientUnits="userSpaceOnUse">
<stop stop-color="#F9B208"/>
<stop offset="1" stop-color="#C14003"/>
</linearGradient>
<linearGradient id="paint1_linear_40_3771" x1="11.9994" y1="-0.000244141" x2="11.9994" y2="13.4342" gradientUnits="userSpaceOnUse">
<stop stop-color="#F9B208"/>
<stop offset="1" stop-color="#C14003"/>
</linearGradient>
<clipPath id="clip0_40_3771">
<rect width="24" height="24" fill="white"/>
</clipPath>
</defs>
</svg>
