<svg width="24" height="24" viewBox="0 0 24 24" fill="none" xmlns="http://www.w3.org/2000/svg">
<g id="speed 2">
<path id="Vector" d="M17.7338 2.757C17.5486 3.06568 17.4818 3.42943 17.6293 3.73018C18.0242 3.98771 20.0184 4.4709 19.8458 5.12579C19.8091 5.23364 19.7949 5.29172 19.7748 5.37066C19.428 5.0536 18.7219 4.89957 18.4669 4.94649C18.2404 4.986 18.0113 5.08946 17.79 5.09874C17.5095 5.09724 17.2585 5.02768 17.0436 4.89933C17.1954 5.31854 17.7397 5.62763 18.0771 5.57489C18.6076 5.46905 19.1803 5.74941 19.5668 5.88755C19.3298 6.53724 18.5348 6.23133 18.5348 6.23133L12.819 4.9179L11.88 4.23975L11.0671 5.07038L15.2364 6.43589L9.61036 6.56133L8.20847 5.97605L6.29738 7.0831L14.875 7.70611L12.2401 10.4917H16.891C17.7976 9.75361 19.8446 8.09171 19.8744 8.11079C20.4775 9.51577 21.4333 9.00249 22.1626 8.18344C22.3742 7.94583 22.6065 8.76291 22.7261 7.43274C22.7561 7.38586 22.7831 7.33847 22.8091 7.29071C21.9641 6.9316 20.532 7.55939 21.3177 6.44733C21.5584 6.10693 22.2916 6.19908 23.046 6.63343C23.0733 5.91802 22.9965 4.64611 22.3202 4.36515C21.6241 4.07597 20.7254 4.10827 20.3835 4.49086C19.9173 3.69961 18.5285 3.59696 17.9785 3.51755C17.8167 3.26307 17.7649 3.02635 17.7337 2.75696L17.7338 2.757ZM8.90588 5.53369L8.69222 5.72279L9.44869 6.04402L9.95738 5.53369H8.90588ZM21.8705 6.67529C22.1771 6.90066 22.1991 6.95386 22.4045 6.96122C22.4794 6.91336 22.6445 6.74499 22.4916 6.7095L21.9741 6.60624C21.9206 6.59668 21.8794 6.63652 21.8705 6.67529ZM6.94528 7.52054L6.66638 7.76728H7.71778L7.99678 7.52054H6.94528ZM5.1038 8.15794L4.5413 8.8778H5.2845L5.54048 8.57714H7.53698L7.16494 8.90246H7.91273L8.66273 8.18264L5.1038 8.15794ZM5.83805 8.9048L0.949219 14.512L2.02861 14.3003L6.65133 8.90485L5.83805 8.9048ZM11.7796 10.9788L5.61923 17.4918L4.83656 17.6917C4.83656 17.6917 4.23197 19.0892 3.95372 20.7413C4.31273 20.9341 4.76888 20.3654 4.76888 20.3654C4.76888 20.3654 4.71731 20.979 5.08013 20.8221C5.74092 19.4829 6.48 18.0917 6.48 18.0917L13.9669 12.3788L14.951 12.6405L16.2522 12.9867L13.3198 15.7395L12.793 15.17C12.793 15.17 11.1843 16.9545 10.5756 18.2743C10.7692 18.4965 11.5286 17.9161 11.5286 17.9161C11.5286 17.9161 11.2769 18.3668 11.6191 18.3525C12.4539 17.57 13.0105 16.9545 13.0105 16.9545L19.2364 12.3353L16.9756 10.9788H11.7796Z" fill="url(#paint0_linear_40_3776)"/>
</g>
<defs>
<linearGradient id="paint0_linear_40_3776" x1="11.9999" y1="2.75696" x2="11.9999" y2="20.8478" gradientUnits="userSpaceOnUse">
<stop stop-color="#F9B208"/>
<stop offset="1" stop-color="#C14003"/>
</linearGradient>
</defs>
</svg>
